# xmcd
#
# Track frame offsets: 
#        150
#        17492
#        37182
#        53191
#        67038
#        85735
#        103497
#        121045
#        137484
#        155543
#        170973
#        190274
#        208820
#        222386
#
# Disc length: 3192 seconds
#
# Revision: 0
# Processed by: cddbd v1.5.2PL0 Copyright (c) Steve Scherf et al.
# Submitted via: ExactAudioCopy v1.0b3
#
DISCID=d20c760e
DTITLE=Tim McGraw - Damn Country Music (Deluxe Edition)
DYEAR=2015
DGENRE=Country
TTITLE0=Tim McGraw Feat. Gracie McGraw - Here Tonight
TTITLE1=Losin' You
TTITLE2=How I'll Always Be
TTITLE3=Damn Country Music
TTITLE4=Love Runs
TTITLE5=What You're Lookin' For
TTITLE6=Top Of The World
TTITLE7=Don't Make Me Feel At Home
TTITLE8=Want You Back
TTITLE9=Tim McGraw Feat. Big and Rich - California
TTITLE10=Humble And Kind
TTITLE11=Everybody's Lookin'
TTITLE12=Kiss A Girl
TTITLE13=Country And Western
EXTD=
EXTT0=
EXTT1=
EXTT2=
EXTT3=
EXTT4=
EXTT5=
EXTT6=
EXTT7=
EXTT8=
EXTT9=
EXTT10=
EXTT11=
EXTT12=
EXTT13=
PLAYORDER=
